<?xml version="1.0" standalone="no"?><!DOCTYPE svg PUBLIC "-//W3C//DTD SVG 1.1//EN" "http://www.w3.org/Graphics/SVG/1.1/DTD/svg11.dtd"><svg t="1564556681809" class="icon" viewBox="0 0 1024 1024" version="1.1" xmlns="http://www.w3.org/2000/svg" p-id="4962" xmlns:xlink="http://www.w3.org/1999/xlink" width="200" height="200"><defs><style type="text/css"></style></defs><path d="M773.632 822.9888c-31.6416 37.376-77.9264 58.7776-126.8736 58.7776H377.2416c-48.9472 0-95.232-21.4016-126.8736-58.7776-31.6416-37.376-45.2608-86.528-37.1712-134.8608l23.6544-142.1312c22.528-135.0656 138.24-233.0624 275.1488-233.0624s252.6208 97.9968 275.1488 233.0624L810.8032 688.128c7.9872 48.3328-5.5296 97.4848-37.1712 134.8608zM477.5936 256c-56.5248 0-105.6768-41.2672-116.9408-98.2016-1.1264-5.632 1.3312-9.5232 2.7648-11.3664 1.6384-1.9456 4.4032-4.1984 8.6016-4.1984h279.9616c4.3008 0 6.9632 2.2528 8.6016 4.1984 1.4336 1.8432 3.8912 5.7344 2.7648 11.3664-11.264 56.9344-60.416 98.2016-116.9408 98.2016h-68.8128z m389.3248 422.7072L843.264 536.576c-19.3536-116.3264-97.6896-209.6128-200.9088-253.2352 38.6048-25.7024 67.2768-65.9456 76.9024-114.5856 8.3968-43.2128-23.9616-83.456-67.2768-83.456H372.0192c-43.2128 0-75.6736 40.2432-67.1744 83.456 9.6256 48.64 38.2976 88.8832 76.9024 114.5856C278.528 326.9632 200.192 420.2496 180.736 536.576l-23.6544 142.1312c-22.6304 135.9872 82.2272 259.8912 220.16 259.8912h269.5168c137.9328 0.1024 242.7904-123.8016 220.16-259.8912z m-283.8528-52.9408c15.6672 0 28.4672-12.6976 28.4672-28.4672 0-15.6672-12.6976-28.4672-28.4672-28.4672h-21.8112l30.1056-30.1056c11.1616-11.1616 11.1616-29.0816 0-40.2432-11.0592-11.1616-29.0816-11.1616-40.2432 0L512 537.7024l-39.2192-39.2192a28.368896 28.368896 0 0 0-40.2432 0c-11.1616 11.0592-11.1616 29.0816 0 40.2432l30.1056 30.1056h-21.8112c-15.6672 0-28.4672 12.6976-28.4672 28.4672 0 15.6672 12.6976 28.4672 28.4672 28.4672h42.7008v28.4672h-42.7008c-15.6672 0-28.4672 12.6976-28.4672 28.4672 0 15.6672 12.6976 28.4672 28.4672 28.4672h42.7008v28.4672c0 15.6672 12.6976 28.4672 28.4672 28.4672 15.6672 0 28.4672-12.6976 28.4672-28.4672v-28.4672h42.7008c15.6672 0 28.4672-12.6976 28.4672-28.4672 0-15.6672-12.6976-28.4672-28.4672-28.4672h-42.7008v-28.4672h42.5984z" fill="#323233" p-id="4963"></path></svg>