<svg id="icon-blocks" viewBox="0 0 1024 1024" width="100%" height="100%"><path d="M515.015078 479.124276a6.030155 6.030155 0 0 1-6.030156 0L103.826757 245.199764a6.030155 6.030155 0 0 1 0-10.353662L508.984922 0.807813a6.030155 6.030155 0 0 1 6.030156 0l405.158165 233.9814c3.982178 2.27553 3.982178 8.078132 0 10.353663L515.015078 479.124276z m34.929389 70.939657c0-2.161754 1.137765-4.152843 2.95819-5.23372l405.215053-233.924512c3.982178-2.332419 8.988345 0.568883 8.988344 5.176831v467.905913c0 2.161754-1.137765 4.095954-3.015077 5.233719l-405.158165 233.9814a6.030155 6.030155 0 0 1-8.988345-5.233719V550.063933zM471.040455 544.830213a5.973267 5.973267 0 0 1 2.958189 5.23372v467.9628c0 4.551061-5.006167 7.395473-8.988344 5.119943l-405.158165-233.924512A5.973267 5.973267 0 0 1 56.893946 783.931556V316.025644c0-4.551061 5.006167-7.452362 8.988344-5.119943l405.215053 233.924512z"></path></svg>