<?xml version="1.0" standalone="no"?><!DOCTYPE svg PUBLIC "-//W3C//DTD SVG 1.1//EN" "http://www.w3.org/Graphics/SVG/1.1/DTD/svg11.dtd"><svg t="1564540331787" class="icon" viewBox="0 0 1024 1024" version="1.1" xmlns="http://www.w3.org/2000/svg" p-id="8953" xmlns:xlink="http://www.w3.org/1999/xlink" width="200" height="200"><defs><style type="text/css"></style></defs><path d="M923.36244 338.529133c-22.549575-53.315276-54.826699-101.190657-95.931886-142.296867-41.10621-41.10621-88.980567-73.382311-142.295843-95.931886-55.213509-23.353894-113.847931-35.195593-174.274162-35.195593-60.424184 0-119.058606 11.841699-174.274162 35.195593-53.314253 22.549575-101.190657 54.826699-142.296867 95.931886s-73.382311 88.980567-95.931886 142.296867C75.004763 393.742642 63.164087 452.376041 63.164087 512.801249c0 60.432371 11.841699 119.065769 35.195593 174.280302 22.549575 53.315276 54.826699 101.19168 95.931886 142.295843 41.10621 41.107233 88.980567 73.382311 142.296867 95.932909 55.215556 23.351847 113.847931 35.19457 174.274162 35.19457 60.426231 0 119.060653-11.840676 174.274162-35.19457 53.315276-22.550599 101.190657-54.826699 142.295843-95.932909 41.10621-41.105187 73.382311-88.980567 95.931886-142.295843 23.352871-55.213509 35.195593-113.847931 35.195593-174.280302C958.558034 452.377064 946.716334 393.742642 923.36244 338.529133zM510.861572 899.315256c-213.121935 0-386.508891-173.386956-386.508891-386.514008 0-213.121935 173.386956-386.507868 386.508891-386.507868 213.120912 0 386.507868 173.386956 386.507868 386.507868C897.36944 725.929324 723.981461 899.315256 510.861572 899.315256z" p-id="8954"></path><path d="M636.14802 493.218238c16.068977 0 29.094642-13.754259 29.094642-30.708396 0-16.95516-13.025665-30.699186-29.094642-30.699186l-41.862433 0 46.479591-79.307254c8.033977-13.915941 2.635013-32.073486-12.047384-40.549531-14.684444-8.478092-33.099862-4.069689-41.133839 9.846252l-64.47443 110.010533L512.147868 431.810656c-0.808412-0.060375-1.622964-0.100284-2.448772-0.100284s-1.641383 0.039909-2.450818 0.100284l-12.175297 0-64.48978-110.010533c-8.035-13.915941-26.450419-18.324344-41.133839-9.846252-14.683421 8.476045-20.081361 26.63359-12.047384 40.549531l46.479591 79.307254-36.554544 0c-16.067954 0-29.093619 13.744026-29.093619 30.699186 0 16.954137 13.025665 30.708396 29.093619 30.708396l91.656513 0 0 52.05661-93.703125 0c-16.067954 0-29.093619 13.745049-29.093619 30.700209 0 16.954137 13.025665 30.699186 29.093619 30.699186l93.703125 0 0 137.704269c0 16.068977 13.745049 29.094642 30.717605 29.094642 16.95516 0 30.699186-13.025665 30.699186-29.094642L540.400329 606.674243l93.702102 0c16.068977 0 29.094642-13.745049 29.094642-30.699186 0-16.95516-13.025665-30.700209-29.094642-30.700209l-93.702102 0 0-52.05661L636.14802 493.218238z" p-id="8955"></path></svg>