<?xml version="1.0" standalone="no"?><!DOCTYPE svg PUBLIC "-//W3C//DTD SVG 1.1//EN" "http://www.w3.org/Graphics/SVG/1.1/DTD/svg11.dtd"><svg t="1564553480403" class="icon" viewBox="0 0 1097 1024" version="1.1" xmlns="http://www.w3.org/2000/svg" p-id="15081" xmlns:xlink="http://www.w3.org/1999/xlink" width="214.2578125" height="200"><defs><style type="text/css"></style></defs><path d="M474.514286 510.902857a36.507429 36.507429 0 0 1 36.498285 36.48 36.507429 36.507429 0 0 1-36.498285 36.498286H255.542857a36.507429 36.507429 0 0 1-36.489143-36.489143 36.507429 36.507429 0 0 1 36.489143-36.489143 36.553143 36.553143 0 0 0 36.498286-36.498286V364.937143H255.542857a36.507429 36.507429 0 0 1-36.489143-36.48 36.507429 36.507429 0 0 1 36.489143-36.498286h36.498286v-18.249143c0-70.418286 57.298286-127.707429 127.725714-127.707428 32.704 0 63.433143 12.114286 86.582857 34.148571a36.452571 36.452571 0 0 1 1.161143 51.602286 36.397714 36.397714 0 0 1-51.602286 1.161143c-9.490286-8.969143-22.336-13.933714-36.132571-13.933715a54.802286 54.802286 0 0 0-54.747429 54.729143v18.249143h36.498286a36.507429 36.507429 0 0 1 36.498286 36.489143 36.507429 36.507429 0 0 1-36.498286 36.489143h-36.498286v109.467428c0 12.772571-2.194286 25.106286-6.198857 36.498286H474.514286zM401.526857 0.036571c221.385143 0 401.453714 180.114286 401.453714 401.389715 0 133.193143-65.984 257.618286-176.493714 333.010285a36.516571 36.516571 0 0 1-50.733714-9.636571 36.397714 36.397714 0 0 1 9.563428-50.651429c90.578286-61.732571 144.667429-163.684571 144.667429-272.722285 0-181.065143-147.364571-328.411429-328.457143-328.411429S73.069714 220.361143 73.069714 401.426286c0 126.034286 70.217143 238.72 183.204572 294.253714a36.516571 36.516571 0 0 1 16.64 48.896 36.534857 36.534857 0 0 1-48.822857 16.64C85.906286 693.275429 0.064 555.410286 0.064 401.426286 0.073143 180.150857 180.141714 0.036571 401.526857 0.036571z m656.914286 583.844572a36.507429 36.507429 0 0 1 36.498286 36.48V839.314286a36.507429 36.507429 0 0 1-72.987429 0V705.316571l-267.949714 234.413715a36.726857 36.726857 0 0 1-40.365715 5.184L438.756571 807.497143l-384.731428 209.737143a35.958857 35.958857 0 0 1-17.453714 4.525714 36.608 36.608 0 0 1-32.118858-19.053714 36.452571 36.452571 0 0 1 14.601143-49.472l401.453715-218.944a36.406857 36.406857 0 0 1 33.792-0.658286l270.061714 135.012571 242.194286-211.785142h-127.085715a36.507429 36.507429 0 0 1-36.489143-36.489143 36.507429 36.507429 0 0 1 36.489143-36.489143h218.971429z" fill="#515151" p-id="15082"></path></svg>