<?xml version="1.0" standalone="no"?><!DOCTYPE svg PUBLIC "-//W3C//DTD SVG 1.1//EN" "http://www.w3.org/Graphics/SVG/1.1/DTD/svg11.dtd"><svg t="1563866604766" class="icon" viewBox="0 0 1542 1024" version="1.1" xmlns="http://www.w3.org/2000/svg" p-id="5972" xmlns:xlink="http://www.w3.org/1999/xlink" width="301.171875" height="200"><defs><style type="text/css"></style></defs><path d="M7.53 1017.725h1517.176V8.785H7.529v1008.94z m1519.686 2.51v-3.764 3.764zM1.255 1024V1.255H1530.98v1021.49H1.255z" fill="#353636" p-id="5973"></path><path d="M3.765 707.765h1523.45v77.804H3.766z" fill="#FFFFFF" p-id="5974"></path><path d="M3.765 629.96h1523.45v77.805H3.766z m0 312.471h1523.45v77.804H3.766z" fill="#D64634" p-id="5975"></path><path d="M3.765 550.902h1523.45v77.804H3.766z" fill="#FFFFFF" p-id="5976"></path><path d="M3.765 785.569h1523.45v77.804H3.766z" fill="#D64634" p-id="5977"></path><path d="M3.765 864.627h1523.45v77.804H3.766z m0-626.196h1523.45v77.804H3.766z" fill="#FFFFFF" p-id="5978"></path><path d="M3.765 473.098h1523.45v77.804H3.766z" fill="#D64634" p-id="5979"></path><path d="M3.765 82.824h1523.45v77.803H3.766z" fill="#FFFFFF" p-id="5980"></path><path d="M3.765 160.627h1523.45v77.804H3.766z m0-155.607h1523.45v77.804H3.766z" fill="#D64634" p-id="5981"></path><path d="M3.765 395.294h1523.45v77.804H3.766z" fill="#FFFFFF" p-id="5982"></path><path d="M3.765 317.49h1523.45v77.804H3.766z" fill="#D64634" p-id="5983"></path><path d="M3.765 5.02H765.49v624.94H3.765z" fill="#0050A2" p-id="5984"></path><path d="M346.353 491.922c-96.628 0-174.431-77.804-174.431-174.432s77.803-174.431 174.43-174.431c28.864 0 55.217 6.274 79.06 18.823-33.883-26.353-75.294-41.411-121.726-41.411-109.176 0-197.02 87.843-197.02 197.02S194.51 514.51 303.687 514.51c45.177 0 87.843-15.059 121.726-41.412-23.843 11.294-50.196 18.824-79.06 18.824z" fill="#FCD300" p-id="5985"></path><path d="M501.96 151.843L515.766 256l58.98-87.843-32.627 100.392 89.098-53.96-71.53 75.293 104.157-8.784-97.882 36.392 97.882 36.392-104.157-8.784 71.53 75.294-89.098-53.96 32.627 100.392-58.98-87.844-13.804 104.157-13.804-104.157-57.726 87.844L463.06 366.43l-90.353 53.961 72.784-75.294-104.157 8.784 97.883-36.392-97.883-36.392 104.157 8.784-72.784-75.294 90.353 53.961-32.628-100.392L488.157 256z" fill="#FCD300" p-id="5986"></path></svg>