<svg id="icon-SG" viewBox="0 0 1433 1024" width="100%" height="100%"><path d="M0 0h1433.6v1024H0V0z" fill="#FFFFFF"></path><path d="M0 0h1433.6v546.133333H0z" fill="#ED3A40"></path><path d="M341.333333 157.013333c-40.96 20.48-68.266667 68.266667-68.266666 116.053334s27.306667 95.573333 68.266666 116.053333c-20.48 13.653333-40.96 20.48-68.266666 20.48-75.093333 0-136.533333-61.44-136.533334-136.533333s61.44-136.533333 136.533334-136.533334c27.306667 0 47.786667 6.826667 68.266666 20.48zM477.866667 136.533333h68.266666v68.266667H477.866667V136.533333zM409.6 273.066667h68.266667v68.266666H409.6V273.066667z m136.533333 68.266666h68.266667v68.266667H546.133333V341.333333z m68.266667-136.533333h68.266667v68.266667H614.4V204.8z" fill="#FFFFFF"></path></svg>