<svg id="icon-HK" viewBox="0 0 1433 1024" width="100%" height="100%"><path d="M136.533333 0h1160.533334c75.093333 0 136.533333 61.44 136.533333 136.533333v750.933334c0 75.093333-61.44 136.533333-136.533333 136.533333H136.533333c-75.093333 0-136.533333-61.44-136.533333-136.533333V136.533333C0 61.44 61.44 0 136.533333 0z" fill="#FFFFFF"></path><path d="M0 0h1433.6v1024H0V0z" fill="#D80027"></path><path d="M757.76 389.12c-6.826667 47.786667-34.133333 40.96-40.96 88.746667-61.44-20.48-102.4-81.92-88.746667-143.36s81.92-102.4 143.36-88.746667c-20.48 88.746667 0 95.573333-13.653333 143.36z m-157.013333 40.96c47.786667 27.306667 27.306667 47.786667 68.266666 68.266667-40.96 54.613333-109.226667 68.266667-163.84 34.133333s-75.093333-102.4-40.96-157.013333c81.92 47.786667 95.573333 27.306667 136.533334 54.613333z m-20.48 163.84c40.96-34.133333 54.613333-13.653333 88.746666-40.96 40.96 47.786667 34.133333 122.88-13.653333 163.84s-122.88 34.133333-163.84-13.653333c68.266667-61.44 54.613333-81.92 88.746667-109.226667z m157.013333 68.266667c-20.48-47.786667 0-54.613333-13.653333-95.573334 61.44-27.306667 129.706667 6.826667 150.186666 61.44 27.306667 61.44-6.826667 129.706667-61.44 150.186667-34.133333-81.92-54.613333-75.093333-75.093333-116.053333z m109.226667-129.706667c-54.613333 6.826667-47.786667-20.48-95.573334-13.653333-6.826667-61.44 40.96-122.88 109.226667-122.88 61.44-6.826667 122.88 40.96 122.88 109.226666-88.746667 0-88.746667 27.306667-136.533333 27.306667z" fill="#F0F0F0"></path></svg>