<svg id="icon-GB" viewBox="0 0 1433 1024" width="100%" height="100%"><path d="M0 0h1433.6v1024H0V0z" fill="#22438B"></path><path d="M150.186667 0H0v157.013333L1283.413333 1024H1433.6v-157.013333z" fill="#FFFFFF"></path><path d="M75.093333 0H0v81.92L1358.506667 1024H1433.6v-81.92z" fill="#C7152A"></path><path d="M1283.413333 0H1433.6v157.013333S552.96 737.28 150.186667 1024H0v-157.013333L1283.413333 0z" fill="#FFFFFF"></path><path d="M1358.506667 0H1433.6v81.92L75.093333 1024H0v-81.92z" fill="#C7152A"></path><path d="M525.653333 0h382.293334v314.026667H1433.6v395.946666h-525.653333V1024H525.653333v-314.026667H0V314.026667h525.653333z" fill="#FFFFFF"></path><path d="M600.746667 0h232.106666v395.946667H1433.6v232.106666h-600.746667V1024H600.746667V628.053333H0V395.946667h600.746667z" fill="#C7152A"></path></svg>