<svg id="icon-KR" viewBox="0 0 1433 1024" width="100%" height="100%"><path d="M0 0h1433.6v1024H0V0z" fill="#FFFFFF"></path><path d="M955.733333 512c0 129.706667-109.226667 238.933333-238.933333 238.933333S477.866667 641.706667 477.866667 512c0-75.093333 163.84-109.226667 293.546666-95.573333 13.653333-6.826667 34.133333-6.826667 47.786667-6.826667 75.093333 0 136.533333 47.786667 136.533333 102.4z" fill="#0048AB"></path><path d="M655.36 512h27.306667c0-54.613333 61.44-102.4 136.533333-102.4s136.533333 47.786667 136.533333 102.4C955.733333 382.293333 846.506667 273.066667 716.8 273.066667c-95.573333 0-177.493333 54.613333-218.453333 136.533333-13.653333 6.826667-20.48 54.613333-13.653334 61.44-6.826667 13.653333-6.826667 27.306667-6.826666 40.96h27.306666c20.48 20.48 47.786667 34.133333 75.093334 34.133333s54.613333-13.653333 75.093333-34.133333z" fill="#CD0027"></path><path d="M1024 341.333333h136.533333l-136.533333-136.533333h-68.266667l68.266667 136.533333zM409.6 341.333333H273.066667l136.533333-136.533333h68.266667L409.6 341.333333z m614.4 341.333334h136.533333l-136.533333 136.533333h-68.266667l68.266667-136.533333z m-614.4 0H273.066667l136.533333 136.533333h68.266667l-68.266667-136.533333z" fill="#252526"></path></svg>