<svg id="icon-KY" viewBox="0 0 1433 1024" width="100%" height="100%"><path d="M0 0h1433.6v1024H0V0z" fill="#000066"></path><path d="M0 0v40.96l621.226667 314.026667h75.093333v-40.96L75.093333 0H0z m703.146667 0v40.96L75.093333 348.16H0v-34.133333L621.226667 0h81.92z" fill="#FFFFFF"></path><path d="M293.546667 0v348.16H409.6V0H293.546667zM0 116.053333v116.053334h703.146667V116.053333H0z" fill="#FFFFFF"></path><path d="M0 143.36v68.266667h703.146667v-68.266667H0zM314.026667 0v348.16h68.266666V0h-68.266666zM0 348.16l232.106667-116.053333h54.613333L54.613333 348.16H0zM0 0l232.106667 116.053333h-47.786667L0 27.306667V0z m416.426667 116.053333L648.533333 0h54.613334L464.213333 116.053333h-47.786666z m286.72 232.106667L464.213333 232.106667h54.613334l184.32 88.746666v27.306667z" fill="#CC0000"></path><path d="M962.56 327.68s-6.826667 6.826667-13.653333 6.826667-13.653333-20.48-27.306667-13.653334c-13.653333 0-20.48 6.826667-20.48 6.826667s-13.653333 0-13.653333 13.653333v20.48l6.826666-6.826666s0 13.653333 6.826667 13.653333 27.306667 0 27.306667 6.826667-6.826667 13.653333-6.826667 20.48c0 6.826667 13.653333 20.48 13.653333 20.48s-13.653333 13.653333-13.653333 20.48v13.653333h-61.44s-6.826667 191.146667 0 204.8c0 13.653333 6.826667 54.613333 6.826667 54.613333s-13.653333-6.826667-27.306667 6.826667-54.613333 34.133333-54.613333 40.96c0 6.826667-6.826667 20.48 0 27.306667 6.826667 6.826667 20.48 27.306667 13.653333 27.306666-13.653333 0-20.48-20.48-27.306667-34.133333-6.826667-6.826667-27.306667-6.826667-34.133333 0v27.306667s13.653333 47.786667 13.653333 54.613333c0 6.826667 40.96 20.48 54.613334 20.48 27.306667 0 40.96-13.653333 40.96-13.653333s61.44 68.266667 191.146666 68.266666c102.4 0 177.493333-61.44 177.493334-61.44s40.96 13.653333 54.613333 6.826667c13.653333-6.826667 34.133333-13.653333 40.96-20.48 6.826667-6.826667 13.653333-54.613333 20.48-68.266667 0-6.826667 0-20.48-6.826667-20.48h-20.48c-6.826667 0-6.826667 6.826667-13.653333 20.48l-13.653333 13.653334s13.653333-20.48 13.653333-27.306667c0-6.826667 6.826667-20.48 0-27.306667-6.826667-6.826667-20.48-6.826667-34.133333-20.48-13.653333-6.826667-20.48-20.48-34.133334-20.48-6.826667 0-13.653333-6.826667-13.653333-6.826666s6.826667-20.48 6.826667-40.96V450.56s-54.613333 6.826667-54.613334 0c0 0 6.826667-20.48 0-34.133333s-20.48-20.48-20.48-20.48c6.826667 0 27.306667-6.826667 27.306667-20.48s-13.653333-6.826667-20.48-13.653334c-6.826667-6.826667-27.306667-20.48-27.306667-20.48l54.613334-34.133333c-6.826667 0-27.306667-6.826667-34.133334 0-6.826667-20.48 20.48-34.133333 20.48-40.96-6.826667 0-34.133333-6.826667-27.306666-6.826667 6.826667 0 6.826667-20.48 6.826666-20.48l-27.306666 6.826667-6.826667-6.826667-13.653333 6.826667-6.826667-13.653333-13.653333 6.826666-6.826667-6.826666h-6.826667v-6.826667l-13.653333 6.826667-13.653333-20.48-6.826667 34.133333h-6.826667l-40.96-27.306667 13.653334 27.306667-6.826667 6.826667v13.653333l-27.306667-6.826667 13.653334 20.48h-20.48l6.826666 20.48-6.826666 13.653334c-13.653333-6.826667 20.48 13.653333 13.653333 13.653333z m191.146667 471.04c0 6.826667 20.48 20.48 13.653333 20.48s-40.96 27.306667-54.613333 27.306667c-13.653333 6.826667-61.44 13.653333-61.44 13.653333s40.96-20.48 61.44-34.133333c13.653333-6.826667 40.96-27.306667 40.96-27.306667z m-232.106667 0l-13.653333 20.48s27.306667 20.48 54.613333 27.306667c20.48 6.826667 61.44 13.653333 61.44 6.826666 0 0-47.786667-20.48-61.44-34.133333-20.48 0-40.96-20.48-40.96-20.48z" fill="#FFFFFF"></path><path d="M942.08 300.373333s20.48 13.653333 27.306667 20.48c6.826667 0 20.48 20.48 20.48 20.48l6.826666-6.826666s-13.653333-13.653333-27.306666-20.48l-27.306667-13.653334z" fill="#FEC500"></path><path d="M942.08 286.72s34.133333 20.48 40.96 27.306667c6.826667 6.826667 13.653333 20.48 13.653333 20.48h13.653334s-6.826667-27.306667-20.48-34.133334c-13.653333-6.826667-47.786667-13.653333-47.786667-13.653333zM1085.44 232.106667s-6.826667 20.48-6.826667 27.306666c0 6.826667-6.826667 20.48-6.826666 20.48h-20.48l34.133333-47.786666z" fill="#FEC500"></path><path d="M948.906667 259.413333s27.306667 20.48 40.96 34.133334c6.826667 13.653333 20.48 34.133333 20.48 34.133333l27.306666-6.826667s-34.133333-40.96-47.786666-47.786666-40.96-13.653333-40.96-13.653334zM976.213333 252.586667s13.653333 27.306667 20.48 34.133333c0 6.826667 13.653333 34.133333 13.653334 34.133333h13.653333s-13.653333-27.306667-20.48-47.786666c-13.653333-6.826667-27.306667-20.48-27.306667-20.48z" fill="#FEC500"></path><path d="M983.04 238.933333s20.48 27.306667 27.306667 40.96c6.826667 13.653333 6.826667 34.133333 6.826666 34.133334l20.48-6.826667s-20.48-40.96-27.306666-47.786667c-13.653333-13.653333-27.306667-20.48-27.306667-20.48zM1153.706667 300.373333s-40.96 6.826667-54.613334 6.826667c-13.653333 6.826667-20.48 20.48-20.48 20.48l13.653334 13.653333s13.653333-13.653333 27.306666-20.48c6.826667-6.826667 34.133333-20.48 34.133334-20.48z" fill="#FEC500"></path><path d="M1146.88 266.24l-47.786667 47.786667-20.48 20.48s-20.48 0-20.48-6.826667c0 0 27.306667-27.306667 47.786667-40.96 27.306667-13.653333 40.96-13.653333 40.96-20.48z" fill="#FEC500"></path><path d="M1140.053333 245.76c0 6.826667-34.133333 34.133333-47.786666 47.786667-6.826667 13.653333-20.48 34.133333-20.48 34.133333s-20.48-6.826667-13.653334-13.653333c0-6.826667 27.306667-27.306667 40.96-40.96 13.653333-13.653333 40.96-27.306667 40.96-27.306667z" fill="#FEC500"></path><path d="M1105.92 245.76s-20.48 27.306667-27.306667 34.133333c-6.826667 6.826667-13.653333 34.133333-13.653333 34.133334l-20.48-20.48s20.48-27.306667 34.133333-40.96 27.306667-6.826667 27.306667-6.826667z" fill="#FEC500"></path><path d="M1058.133333 279.893333c0 6.826667 0 6.826667-6.826666 6.826667s-6.826667-6.826667-6.826667-6.826667c0-6.826667 0-6.826667 6.826667-6.826666s6.826667 0 6.826666 6.826666z m13.653334 13.653334c0 6.826667 0 6.826667-6.826667 6.826666s-6.826667-6.826667-6.826667-6.826666c0-6.826667 0-6.826667 6.826667-6.826667s6.826667 0 6.826667 6.826667z m-27.306667-13.653334c0 6.826667-6.826667 6.826667-6.826667 6.826667s-13.653333 0-13.653333-6.826667l6.826667-6.826666c6.826667 0 13.653333 6.826667 13.653333 6.826666z" fill="#FEC500"></path><path d="M1064.96 300.373333c0 6.826667-6.826667 13.653333-6.826667 13.653334-6.826667 0-6.826667-6.826667-6.826666-13.653334s6.826667-13.653333 6.826666-13.653333 6.826667 6.826667 6.826667 13.653333z m-27.306667 0c0 6.826667-6.826667 13.653333-6.826666 13.653334-6.826667 0-6.826667-6.826667-6.826667-13.653334s6.826667-13.653333 6.826667-13.653333 6.826667 6.826667 6.826666 13.653333z" fill="#FEC500"></path><path d="M1024 307.2c0 6.826667 0 6.826667-6.826667 6.826667s-6.826667-6.826667-6.826666-6.826667 0-6.826667 6.826666-6.826667 6.826667 0 6.826667 6.826667z m54.613333 0c0 6.826667-6.826667 13.653333-13.653333 13.653333s-13.653333-6.826667-13.653333-13.653333 6.826667-13.653333 13.653333-13.653333 13.653333 6.826667 13.653333 13.653333z m-27.306666-20.48c0 6.826667-6.826667 6.826667-6.826667 6.826667s-6.826667 0-6.826667-6.826667 6.826667-6.826667 6.826667-6.826667l6.826667 6.826667z" fill="#FEC500"></path><path d="M1051.306667 307.2c0 6.826667-6.826667 13.653333-13.653334 13.653333s-13.653333-6.826667-13.653333-13.653333 6.826667-13.653333 13.653333-13.653333 13.653333 6.826667 13.653334 13.653333z m34.133333 13.653333c0 6.826667-6.826667 13.653333-13.653333 13.653334s-13.653333-6.826667-13.653334-13.653334 6.826667-13.653333 13.653334-13.653333c6.826667 6.826667 13.653333 6.826667 13.653333 13.653333z m-61.44 0c0 6.826667 0 6.826667-6.826667 6.826667s-6.826667-6.826667-6.826666-6.826667 0-6.826667 6.826666-6.826666 6.826667 0 6.826667 6.826666z" fill="#FEC500"></path><path d="M1064.96 320.853333c0 6.826667-6.826667 13.653333-13.653333 13.653334s-13.653333-6.826667-13.653334-13.653334 6.826667-13.653333 13.653334-13.653333c13.653333 0 13.653333 6.826667 13.653333 13.653333z m-27.306667 0c0 6.826667-6.826667 6.826667-6.826666 6.826667-6.826667 0-6.826667-6.826667-6.826667-6.826667 0-6.826667 6.826667-6.826667 6.826667-6.826666 0-6.826667 6.826667 0 6.826666 6.826666z" fill="#FEC500"></path><path d="M1051.306667 320.853333c0 6.826667-6.826667 13.653333-6.826667 13.653334s-6.826667-6.826667-6.826667-13.653334 6.826667-13.653333 6.826667-13.653333 6.826667 6.826667 6.826667 13.653333z m-40.96-61.44l20.48 6.826667-20.48 6.826667 20.48-6.826667s-20.48 20.48-13.653334 20.48c6.826667 0 20.48-13.653333 20.48-13.653333l13.653334 20.48V273.066667l20.48 13.653333-13.653334-13.653333h27.306667l-13.653333-6.826667s13.653333-13.653333 6.826666-13.653333l-20.48 13.653333 20.48-27.306667-20.48 13.653334v-13.653334l-13.653333 20.48-6.826667-20.48s0 20.48-6.826666 20.48h-20.48z" fill="#FEC500"></path><path d="M962.56 416.426667s13.653333 34.133333 34.133333 34.133333 27.306667-6.826667 27.306667-6.826667-6.826667-6.826667-13.653333-20.48c-6.826667-13.653333-6.826667-20.48-6.826667-20.48l-40.96 13.653334z m68.266667-13.653334s13.653333 34.133333 20.48 40.96c6.826667 6.826667 20.48 6.826667 27.306666 6.826667h13.653334s-6.826667 0-13.653334-20.48-6.826667-27.306667-6.826666-27.306667h-40.96z m81.92 6.826667v34.133333c0 6.826667 13.653333 20.48 13.653333 20.48s13.653333 0 13.653333-20.48c0-13.653333-6.826667-27.306667-6.826666-27.306666l-20.48-6.826667z" fill="#00389B"></path><path d="M948.906667 368.64s0 6.826667 0 0c0 6.826667-6.826667 20.48-6.826667 20.48 0 6.826667 6.826667 27.306667 34.133333 27.306667s54.613333-13.653333 54.613334-13.653334-54.613333-47.786667-61.44-47.786666c-6.826667 0-20.48 13.653333-20.48 13.653333z m157.013333 34.133333s6.826667 13.653333 6.826667 20.48v6.826667l34.133333 6.826667v-20.48c-6.826667-6.826667-20.48-34.133333-20.48-34.133334l-20.48 20.48z m20.48-20.48s6.826667 6.826667 13.653333 6.826667l20.48-20.48h-13.653333c-6.826667 0-20.48 13.653333-20.48 13.653333z" fill="#005120"></path><path d="M942.08 368.64s0-6.826667-6.826667-6.826667h-20.48c-6.826667-6.826667-6.826667-13.653333-6.826666-13.653333h-6.826667v-13.653333c6.826667-6.826667 13.653333 0 13.653333 0s6.826667-6.826667 13.653334-6.826667 13.653333 6.826667 20.48 13.653333h20.48c6.826667 0 27.306667-13.653333 34.133333-13.653333h34.133333c6.826667 0 34.133333 6.826667 40.96 6.826667 6.826667 6.826667 47.786667 20.48 54.613334 27.306666 6.826667 6.826667 20.48 6.826667 20.48 6.826667s-20.48 27.306667-34.133334 27.306667c-20.48 6.826667-54.613333 13.653333-75.093333 13.653333-20.48 0-34.133333-6.826667-54.613333-13.653333-13.653333-6.826667-34.133333-20.48-34.133334-20.48v-13.653334l-13.653333 6.826667z" fill="#005120"></path><path d="M921.6 341.333333s-6.826667 0 0 0c-6.826667 0 0 6.826667 0 0 6.826667 6.826667 13.653333 0 13.653333 0h-13.653333z" fill="#005120"></path><path d="M921.6 341.333333c0 6.826667 6.826667 6.826667 0 0 6.826667 6.826667 6.826667 0 0 0z" fill=""></path><path d="M976.213333 341.333333s0-6.826667 6.826667-13.653333 20.48 0 20.48 0l-6.826667 6.826667V341.333333h-13.653333s-6.826667 6.826667-6.826667 0z m34.133334-13.653333s-6.826667 6.826667-6.826667 13.653333c0 0 6.826667 6.826667 13.653333 6.826667 0 0 13.653333-6.826667 13.653334-13.653333v-6.826667h-20.48z m27.306666 0V341.333333s6.826667 13.653333 13.653334 13.653334h20.48l6.826666-13.653334s-6.826667-6.826667-13.653333-6.826666c-20.48-6.826667-20.48-6.826667-27.306667-6.826667z m40.96 13.653333s20.48 6.826667 27.306667 13.653334l13.653333 13.653333 13.653334-6.826667-20.48-20.48h-34.133334z m-6.826666 6.826667s13.653333 34.133333 20.48 40.96l20.48-6.826667s-6.826667-6.826667-20.48-13.653333c-6.826667-20.48-13.653333-27.306667-20.48-20.48z m-20.48 6.826667l-6.826667 34.133333 34.133333-6.826667c0-6.826667-13.653333-34.133333-20.48-34.133333 6.826667 6.826667 0 6.826667-6.826666 6.826667z m-34.133334-6.826667c-6.826667 6.826667 0 34.133333 0 34.133333l20.48 6.826667s6.826667-34.133333 0-40.96-6.826667-6.826667-13.653333-6.826667c6.826667 6.826667 0 6.826667-6.826667 6.826667z m-40.96 0v13.653333c6.826667 0 13.653333 6.826667 20.48 6.826667 6.826667 6.826667 13.653333 6.826667 13.653334 6.826667s6.826667-27.306667 0-34.133334h-13.653334c-6.826667 6.826667-20.48 6.826667-20.48 6.826667z" fill="#001707"></path><path d="M832.853333 730.453333c6.826667-6.826667 13.653333-20.48 27.306667-20.48s27.306667 13.653333 27.306667 13.653334l13.653333 54.613333-20.48 13.653333s-6.826667-20.48-13.653333-20.48-6.826667 27.306667-6.826667 27.306667l-34.133333-40.96c-6.826667-6.826667 6.826667-27.306667 6.826666-27.306667z m334.506667-6.826666c6.826667 0 20.48-13.653333 34.133333-13.653334s20.48 6.826667 27.306667 13.653334c6.826667 6.826667 13.653333 20.48 13.653333 20.48l-13.653333 40.96s-6.826667 6.826667-6.826667 0c0 0-6.826667-13.653333-13.653333-13.653334s-6.826667 13.653333-6.826667 13.653334l-34.133333-61.44z" fill="#D40F0F"></path><path d="M1174.186667 737.28c0 6.826667 20.48 61.44 61.44 75.093333 40.96 13.653333 47.786667-13.653333 54.613333-20.48 6.826667-6.826667 20.48-6.826667 20.48-6.826666s-6.826667 54.613333-6.826667 61.44c-6.826667 6.826667-13.653333 20.48-47.786666 20.48-34.133333 0-68.266667-34.133333-81.92-40.96-13.653333-6.826667-27.306667-34.133333-27.306667-47.786667-6.826667-13.653333 27.306667-40.96 27.306667-40.96z m-409.6 116.053333s20.48 20.48 40.96 13.653334c27.306667 0 68.266667-13.653333 81.92-40.96 20.48-27.306667 27.306667-54.613333 27.306666-54.613334l-27.306666-47.786666s0 13.653333-6.826667 27.306666-20.48 40.96-40.96 47.786667c-20.48 6.826667-20.48 13.653333-34.133333 13.653333-6.826667 0-34.133333-13.653333-34.133334-13.653333l-13.653333 27.306667s0 20.48 6.826667 27.306666z" fill="#FDDC59"></path><path d="M832.853333 723.626667s-47.786667 27.306667-47.786666 34.133333c0 13.653333 75.093333 157.013333 238.933333 163.84 163.84 0 259.413333-136.533333 252.586667-157.013333-6.826667-20.48-54.613333-47.786667-54.613334-47.786667s13.653333 13.653333 13.653334 27.306667-54.613333 136.533333-197.973334 129.706666c-143.36-6.826667-204.8-109.226667-204.8-122.88v-27.306666z" fill="#FDDC59"></path><path d="M1269.76 832.853333c6.826667 0 27.306667-68.266667 40.96-68.266666 13.653333 0 6.826667 20.48 6.826667 27.306666 0 6.826667-13.653333 47.786667-13.653334 47.786667s0-13.653333-6.826666-13.653333c-13.653333 0-27.306667 6.826667-27.306667 6.826666z m-505.173333 20.48c0-6.826667-13.653333-13.653333 0-20.48 13.653333-6.826667 27.306667 6.826667 27.306666 6.826667s-6.826667-27.306667-20.48-47.786667c-13.653333-20.48-13.653333-20.48-20.48-13.653333-6.826667 6.826667-6.826667 13.653333 0 27.306667 0 6.826667 13.653333 47.786667 13.653334 47.786666z" fill="#D40F0F"></path><path d="M907.946667 730.453333l13.653333-54.613333-40.96-34.133333h54.613333l20.48-47.786667 20.48 54.613333h54.613334l-40.96 34.133334 13.653333 54.613333-47.786667-40.96-47.786666 34.133333z" fill="#FDC400"></path><path d="M1201.493333 457.386667v204.8c0 102.4-102.4 184.32-170.666666 204.8-68.266667-13.653333-170.666667-102.4-170.666667-204.8v-204.8h341.333333z" fill="#FFFFFF"></path><path d="M866.986667 457.386667v129.706666h20.48c20.48 0 27.306667 27.306667 47.786666 27.306667 27.306667 0 27.306667-27.306667 47.786667-27.306667s27.306667 27.306667 47.786667 27.306667c27.306667 0 27.306667-27.306667 47.786666-27.306667s27.306667 27.306667 47.786667 27.306667c20.48 0 20.48-27.306667 47.786667-34.133333h20.48V457.386667h-327.68z" fill="#D40F0F"></path><path d="M866.986667 621.226667v40.96h20.48c20.48 0 27.306667 27.306667 47.786666 27.306666 27.306667 0 27.306667-27.306667 47.786667-27.306666s27.306667 27.306667 47.786667 27.306666 27.306667-27.306667 47.786666-27.306666c27.306667 0 20.48 27.306667 47.786667 27.306666 20.48 0 20.48-27.306667 47.786667-27.306666h27.306666v-40.96h-27.306666c-27.306667 0-27.306667 27.306667-47.786667 27.306666-27.306667 0-27.306667-27.306667-47.786667-27.306666-27.306667 0-27.306667 27.306667-47.786666 27.306666-27.306667 0-27.306667-27.306667-47.786667-27.306666s-27.306667 27.306667-47.786667 27.306666c-27.306667 0-27.306667-27.306667-47.786666-27.306666h-20.48z m6.826666 88.746666l13.653334 40.96c20.48 0 27.306667 27.306667 47.786666 27.306667 27.306667 0 27.306667-27.306667 47.786667-27.306667 27.306667 0 27.306667 27.306667 47.786667 27.306667s27.306667-27.306667 47.786666-27.306667 20.48 27.306667 47.786667 27.306667c20.48 0 20.48-27.306667 47.786667-27.306667l20.48-40.96h-13.653334c-27.306667 0-27.306667 27.306667-47.786666 27.306667-27.306667 0-27.306667-27.306667-47.786667-27.306667s-27.306667 27.306667-47.786667 27.306667c-27.306667 0-27.306667-27.306667-47.786666-27.306667-27.306667 0-27.306667 27.306667-47.786667 27.306667s-27.306667-27.306667-47.786667-27.306667h-20.48z m163.84 150.186667c27.306667 0 81.92-40.96 81.92-40.96s-6.826667-27.306667-27.306666-27.306667c-27.306667 0-27.306667 27.306667-47.786667 27.306667-27.306667 0-27.306667-27.306667-47.786667-27.306667s-40.96 27.306667-40.96 27.306667 54.613333 40.96 81.92 40.96z" fill="#0062BB"></path><path d="M907.946667 552.96s27.306667 6.826667 47.786666 0c20.48 0 27.306667-6.826667 27.306667-6.826667h20.48s6.826667 13.653333 0 20.48-6.826667 6.826667-13.653333 6.826667v-6.826667l-6.826667 6.826667s0-6.826667-6.826667-6.826667l-6.826666 6.826667v-6.826667l-6.826667 6.826667-6.826667-6.826667-6.826666 6.826667-6.826667-6.826667-13.653333 6.826667v-6.826667c0 6.826667-20.48 0-20.48 0l-6.826667 6.826667-6.826667-6.826667s6.826667-6.826667 0-6.826666H887.466667v-6.826667h6.826666V546.133333h6.826667l6.826667 6.826667z" fill="#FDC400"></path><path d="M935.253333 484.693333s-13.653333 6.826667-6.826666 20.48c0 13.653333 27.306667 27.306667 27.306666 27.306667s13.653333-6.826667 13.653334 0 6.826667 20.48 0 20.48-20.48 6.826667-20.48 0V546.133333h-13.653334v-6.826666h-13.653333l6.826667-6.826667-20.48-6.826667 6.826666-6.826666-13.653333-6.826667h6.826667l-13.653334-6.826667h6.826667l-6.826667-6.826666h6.826667l-6.826667-6.826667h6.826667l6.826667 6.826667v-13.653334h6.826666v13.653334l6.826667-6.826667c0-6.826667 13.653333-6.826667 13.653333-6.826667z" fill="#FDC400"></path><path d="M1146.88 559.786667s-6.826667 6.826667 0 0c-6.826667 6.826667 6.826667 0 0 0z m6.826667 6.826666v6.826667s6.826667-6.826667 0-6.826667z m20.48 0l6.826666 6.826667s0-6.826667-6.826666-6.826667z m-143.36-13.653333l-6.826667 6.826667s13.653333 0 6.826667-6.826667c6.826667 6.826667 0 6.826667 0 0z m13.653333 6.826667l-6.826667 6.826666c0 6.826667 13.653333 0 6.826667-6.826666z m-6.826667-6.826667h-6.826666s6.826667-6.826667 6.826666 0z m-136.533333-6.826667l-6.826667-6.826666 6.826667 6.826666z m-6.826667 6.826667l-13.653333 6.826667h20.48c-6.826667 0-6.826667-6.826667-6.826667-6.826667z m6.826667 6.826667l-13.653333 6.826666h13.653333v-6.826666z m0-68.266667s-6.826667-6.826667 0-6.826667c-6.826667-6.826667 6.826667 0 0 6.826667z m6.826667-13.653333s6.826667-6.826667 0 0c0-6.826667 6.826667 0 6.826666 0h-6.826666z m20.48 6.826666V477.866667s6.826667 6.826667 6.826666 13.653333c0-6.826667-6.826667-6.826667-6.826666-6.826667z" fill=""></path><path d="M1064.96 532.48l13.653333 13.653333h-27.306666-13.653334v6.826667h6.826667-13.653333v6.826667h6.826666v6.826666s6.826667 6.826667 6.826667 0l6.826667-6.826666h6.826666s-6.826667 6.826667 0 6.826666l13.653334-6.826666v6.826666l6.826666-6.826666v6.826666l13.653334-6.826666 6.826666 6.826666v-6.826666h6.826667s-6.826667 0-6.826667-6.826667v-13.653333c6.826667-6.826667-34.133333-6.826667-34.133333-6.826667z" fill="#FDC400"></path><path d="M989.866667 518.826667h136.533333c13.653333 0 27.306667-6.826667 27.306667-13.653334s-20.48-6.826667-27.306667-6.826666c-6.826667 0-40.96 13.653333-61.44 13.653333s-27.306667-6.826667-27.306667-20.48c0-6.826667 6.826667-13.653333 20.48-13.653333 13.653333 0 34.133333 6.826667 40.96 6.826666s13.653333-13.653333 20.48-13.653333h13.653334l-6.826667 6.826667 20.48-6.826667s-13.653333 13.653333-27.306667 13.653333c-13.653333 6.826667-40.96 0-54.613333 0-13.653333 0-13.653333 0-13.653333 6.826667s6.826667 13.653333 13.653333 13.653333 27.306667-6.826667 27.306667-6.826666l-6.826667-6.826667h27.306667v-6.826667h13.653333l-6.826667-6.826666h20.48c13.653333 0 34.133333 6.826667 34.133334 13.653333s-6.826667 20.48-20.48 20.48h-20.48c0 6.826667 13.653333 6.826667 20.48 6.826667s13.653333-6.826667 13.653333-6.826667l6.826667 6.826667h6.826666l-6.826666 13.653333h6.826666l-6.826666 6.826667h6.826666l-13.653333 6.826666 6.826667 6.826667-6.826667 6.826667-6.826667-6.826667s0 6.826667-6.826666 6.826667h-6.826667s6.826667-6.826667 0-6.826667l-6.826667 6.826667-6.826666-6.826667 13.653333-6.826667c0-6.826667-6.826667-13.653333-27.306667-13.653333-20.48 0-20.48 6.826667-34.133333 6.826667s-13.653333-6.826667-27.306667-6.826667c0 0-34.133333 13.653333-47.786666 13.653333h-34.133334l13.653334-27.306666z" fill="#FDC400"></path><path d="M962.56 512s-13.653333 0-13.653333 13.653333v13.653334l6.826666-6.826667s-6.826667 13.653333 0 13.653333c0 0 6.826667 0 6.826667 6.826667v-13.653333s0 6.826667 6.826667 13.653333 13.653333 0 13.653333 0V546.133333l6.826667 6.826667s0 6.826667 13.653333 0c6.826667 0 0-6.826667 0-6.826667l-6.826667-6.826666s6.826667 6.826667 13.653334 6.826666 0-13.653333 0-6.826666l6.826666 6.826666s-6.826667-6.826667-6.826666-13.653333-6.826667-6.826667 0-6.826667v-13.653333s6.826667 0 6.826666-6.826667-6.826667-6.826667-13.653333-6.826666v-6.826667l-6.826667 6.826667-6.826666-6.826667s-6.826667 6.826667-13.653334 6.826667-6.826667 6.826667-6.826666 6.826666-13.653333-27.306667-13.653334-20.48c0 6.826667 6.826667 6.826667 6.826667 6.826667v20.48z" fill="#FDC400"></path><path d="M969.386667 491.52h6.826666s6.826667 0 6.826667 6.826667c0 0-6.826667 0-13.653333-6.826667 6.826667 6.826667 0 0 0 0z m27.306666 0h-6.826666s-6.826667 0-6.826667 6.826667c6.826667 0 6.826667 0 13.653333-6.826667 0 6.826667 0 0 0 0z" fill=""></path><path d="M976.213333 512v13.653333l6.826667-13.653333h-6.826667z" fill="#000039"></path><path d="M996.693333 826.026667l13.653334-47.786667-40.96-27.306667h47.786666l13.653334-47.786666 13.653333 47.786666h47.786667l-40.96 27.306667 13.653333 47.786667-40.96-27.306667-27.306667 27.306667z" fill="#FDC400"></path><path d="M1003.52 812.373333l13.653333-34.133333-34.133333-27.306667h40.96l13.653333-34.133333 13.653334 34.133333h40.96l-34.133334 20.48 13.653334 34.133334-34.133334-20.48-34.133333 27.306666z" fill="#003017"></path><path d="M914.773333 730.453333l13.653334-40.96-40.96-27.306666h47.786666L955.733333 614.4l13.653334 40.96h47.786666l-40.96 27.306667 13.653334 40.96-34.133334-20.48-40.96 27.306666z" fill="#FDC400"></path><path d="M921.6 723.626667l13.653333-34.133334-34.133333-20.48h40.96l13.653333-40.96 13.653334 34.133334h40.96l-34.133334 20.48 13.653334 34.133333-34.133334-20.48-34.133333 27.306667z" fill="#003017"></path><path d="M1078.613333 730.453333l13.653334-40.96-40.96-27.306666h47.786666l20.48-47.786667 13.653334 40.96h47.786666l-40.96 27.306667 13.653334 40.96-40.96-27.306667-34.133334 34.133333z" fill="#FDC400"></path><path d="M1085.44 723.626667l13.653333-34.133334-34.133333-20.48h40.96l13.653333-34.133333 13.653334 34.133333h40.96l-34.133334 13.653334 13.653334 34.133333-34.133334-20.48-34.133333 27.306667z" fill="#003017"></path><path d="M798.72 771.413333l27.306667-13.653333v6.826667H819.2v6.826666l6.826667-6.826666v6.826666l-27.306667 13.653334v-6.826667l13.653333-6.826667v-6.826666l-13.653333 6.826666m13.653333 20.48l20.48-13.653333 6.826667 13.653333h-6.826667l-6.826666-6.826666-6.826667 6.826666 6.826667 6.826667H819.2v-13.653333l-6.826667 6.826666 13.653334 13.653334H819.2l-6.826667-13.653334m13.653334 20.48l20.48-20.48 6.826666 6.826667-6.826666 6.826667 6.826666 6.826666 6.826667-6.826666 6.826667 6.826666-20.48 20.48-6.826667-6.826666 6.826667-6.826667-6.826667-6.826667h-13.653333m27.306666 13.653334l6.826667-6.826667-6.826667 6.826667m-13.653333 6.826666l20.48-20.48 6.826667 6.826667-13.653334 27.306667-6.826666-6.826667 6.826666-6.826667-6.826666-6.826666-6.826667 6.826666m20.48 13.653334l13.653333-20.48-6.826666-6.826667v-6.826667l13.653333 13.653334v6.826666l-6.826667-6.826666-13.653333 20.48m6.826667 13.653333l13.653333-27.306667h6.826667l-6.826667 6.826667 6.826667 6.826667 6.826666-6.826667h6.826667l-13.653333 27.306667h-6.826667l6.826667-13.653334-6.826667-6.826666-13.653333 13.653333m27.306666 13.653333l13.653334-27.306666 13.653333 6.826666v6.826667l-6.826667-6.826667v6.826667l6.826667 6.826667v6.826666l-6.826667-6.826666-20.48 6.826666m27.306667 0v6.826667s0-6.826667 6.826667-6.826667v-6.826666c-6.826667-6.826667-6.826667 0-6.826667 6.826666m-6.826667-6.826666v-6.826667-6.826667H935.253333v34.133334h-6.826666-6.826667-6.826667v-6.826667-6.826667-6.826666m27.306667-6.826667V880.64l6.826667-20.48h6.826666l-6.826666 27.306667v6.826666h-6.826667s-6.826667 0-6.826667-6.826666v-6.826667l6.826667-20.48m13.653333 40.96l6.826667-27.306667h6.826667v20.48l6.826666-20.48h6.826667l-6.826667 27.306667h-6.826666v-20.48l-13.653334 20.48m27.306667 0h6.826667v-6.826667-6.826666l-6.826667 13.653333m-6.826667 0l6.826667-27.306667h13.653333v27.306667H976.213333m20.48 6.826667v-27.306667h13.653334v6.826667h-6.826667v6.826666h6.826667v6.826667h-6.826667l-6.826667 6.826667 13.653334-6.826667v6.826667h-13.653334m20.48-6.826667c6.826667 0 6.826667 0 0 0 6.826667 0 6.826667 0 0 0 6.826667 0 6.826667 0 6.826667-6.826667V887.466667v-6.826667l-6.826667 20.48m-6.826666 6.826667v-27.306667h13.653333v27.306667h-13.653333m34.133333 0v-27.306667h6.826667l-6.826667 27.306667m13.653333 0v-27.306667h-6.826666v-6.826667h13.653333v6.826667h-6.826667v27.306667m20.48-34.133334l6.826667 20.48v0-20.48h6.826667v27.306667h-6.826667-6.826667v-27.306667m20.48 6.826667c6.826667 0 6.826667 0 0 0 6.826667 0 6.826667 0 0 0l6.826667-6.826667h-6.826667v6.826667m0 20.48l-6.826666-27.306667h13.653333v13.653334l-6.826667 6.826666H1092.266667l6.826666 6.826667m20.48-20.48v-6.826667 6.826667m-6.826666 0v-6.826667-6.826666-6.826667c0-6.826667 0 0 6.826666 0h13.653334v34.133333h-6.826667-6.826667-6.826666V887.466667c6.826667 0 6.826667 0 0-6.826667m27.306666 6.826667l-6.826666-27.306667h6.826666l13.653334 13.653333-6.826667-20.48h6.826667l6.826666 27.306667h-6.826666l-13.653334-13.653333v20.48m34.133334-13.653334l-13.653334-20.48h-6.826666v-6.826666l13.653333-6.826667v6.826667H1160.533333l13.653334 27.306666m6.826666-6.826666l-13.653333-27.306667h6.826667l6.826666 6.826667 6.826667-6.826667-6.826667-6.826667h6.826667l13.653333 27.306667h-6.826666l-6.826667-13.653333-6.826667 6.826666v13.653334m20.48-13.653334l-13.653333-27.306666 13.653333-6.826667v6.826667l-6.826666 6.826666 6.826666 6.826667 6.826667-6.826667v6.826667l-6.826667 6.826667 6.826667 6.826666 6.826667-6.826666v6.826666h-13.653334m13.653334-27.306666h6.826666c-6.826667-6.826667-6.826667-6.826667-6.826666 0l-6.826667-6.826667v-6.826667-6.826666h13.653333l-6.826666 6.826666H1235.626667v13.653334H1228.8c-6.826667 6.826667-6.826667 6.826667-13.653333 0m20.48-6.826667l-20.48-20.48 6.826666-13.653333h6.826667l-6.826667 6.826666 6.826667 6.826667 6.826667-6.826667-6.826667 13.653334 6.826667 6.826666 6.826666-6.826666h6.826667l-13.653333 13.653333m6.826666-27.306667l-6.826666-6.826666 6.826666 6.826666m6.826667 13.653334l-20.48-20.48 6.826667-6.826667 27.306666 13.653333v6.826667h-6.826666v6.826667h-6.826667m0-27.306667h6.826667c-6.826667-6.826667-6.826667 0-6.826667 0l-6.826667-6.826667-6.826666-6.826666c-6.826667-6.826667 0-6.826667 0-6.826667s0-6.826667 6.826666-6.826667h6.826667v6.826667H1269.76s6.826667 0 6.826667 6.826667v6.826666s0 6.826667-6.826667 6.826667c-13.653333 6.826667-13.653333 6.826667-20.48 0" fill=""></path></svg>