<?xml version="1.0" standalone="no"?><!DOCTYPE svg PUBLIC "-//W3C//DTD SVG 1.1//EN" "http://www.w3.org/Graphics/SVG/1.1/DTD/svg11.dtd"><svg t="1564553061174" class="icon" viewBox="0 0 1024 1024" version="1.1" xmlns="http://www.w3.org/2000/svg" p-id="14022" xmlns:xlink="http://www.w3.org/1999/xlink" width="200" height="200"><defs><style type="text/css"></style></defs><path d="M511.95392 542.94016c-128.1792 0-235.54048-37.6576-264.85248-88.50944-5.15072 8.97536-8.22272 18.2528-8.22272 27.83744l0 83.14368c0 64.22528 122.27072 116.21888 273.0752 116.21888 150.86592 0 273.16736-51.9936 273.16736-116.21888L785.12128 482.26816c0-9.57952-3.072-18.86208-8.24832-27.83744C747.4944 505.28256 640.22528 542.94016 511.95392 542.94016z" p-id="14023"></path><path d="M511.95392 714.52672c-128.1792 0-235.54048-37.77536-264.85248-88.32512-5.15072 8.8576-8.22272 18.0736-8.22272 27.71456l0 83.13856c0 64.16896 122.27072 116.21888 273.0752 116.21888 150.86592 0 273.16736-52.04992 273.16736-116.21888l0-83.13856c0-9.64096-3.072-18.85696-8.24832-27.71456C747.4944 676.75136 640.22528 714.52672 511.95392 714.52672z" p-id="14024"></path><path d="M777.58976 288.38912c-5.2992 46.99136-121.99936 84.64896-265.63584 84.64896-143.56992 0-260.33152-37.65248-265.5744-84.58752-4.69504 8.49408-7.5008 17.35168-7.5008 26.50624l0 83.08736c0 64.28672 122.27072 116.21888 273.0752 116.21888 150.86592 0 273.16736-51.93216 273.16736-116.21888L785.12128 314.9568C785.12128 305.80224 782.32576 296.94464 777.58976 288.38912z" p-id="14025"></path><path d="M511.95392 346.6496c147.00544 0 266.14784-39.34208 266.14784-87.90016 0-48.61952-119.14752-88.02304-266.14784-88.02304-147.00032 0-266.11712 39.40352-266.11712 88.02304C245.8368 307.30752 364.9536 346.6496 511.95392 346.6496z" p-id="14026"></path></svg>