<?xml version="1.0" standalone="no"?><!DOCTYPE svg PUBLIC "-//W3C//DTD SVG 1.1//EN" "http://www.w3.org/Graphics/SVG/1.1/DTD/svg11.dtd"><svg t="1565226497792" class="icon" viewBox="0 0 1024 1024" version="1.1" xmlns="http://www.w3.org/2000/svg" p-id="15231" xmlns:xlink="http://www.w3.org/1999/xlink" width="200" height="200"><defs><style type="text/css"></style></defs><path d="M690.971429 292.571429c0-5.028571-4.114286-9.142857-9.142858-9.142858h-62.285714c-3.428571 0-6.628571 1.942857-8.114286 5.028572l-96.8 192.914286H510.857143l-96.8-192.914286a9.142857 9.142857 0 0 0-8.114286-5.028572h-63.657143c-1.485714 0-2.971429 0.342857-4.342857 1.142858-4.457143 2.4-6.057143 8-3.657143 12.342857l118.742857 218.971428h-65.142857c-5.028571 0-9.142857 4.114286-9.142857 9.142857v30.971429c0 5.028571 4.114286 9.142857 9.142857 9.142857h86.857143v44.571429h-86.857143c-5.028571 0-9.142857 4.114286-9.142857 9.142857v30.971428c0 5.028571 4.114286 9.142857 9.142857 9.142858h86.857143V731.428571c0 5.028571 4.114286 9.142857 9.142857 9.142858h57.028572c5.028571 0 9.142857-4.114286 9.142857-9.142858v-72.571428h87.2c5.028571 0 9.142857-4.114286 9.142857-9.142857v-30.971429c0-5.028571-4.114286-9.142857-9.142857-9.142857h-87.2v-44.571429h87.2c5.028571 0 9.142857-4.114286 9.142857-9.142857v-30.971428c0-5.028571-4.114286-9.142857-9.142857-9.142857H571.428571l118.514286-218.971429c0.571429-1.257143 1.028571-2.742857 1.028572-4.228571zM107.314286 503.085714a403.085714 403.085714 0 0 1 118.285714-277.028571c37.142857-37.142857 80.342857-66.4 128.457143-86.742857 49.828571-21.028571 102.742857-31.771429 157.257143-31.771429 54.628571 0 107.542857 10.628571 157.257143 31.771429 48.114286 20.342857 91.314286 49.6 128.457142 86.742857 11.428571 11.428571 22.057143 23.428571 31.885715 35.885714l-57.142857 44.685714a9.142857 9.142857 0 0 0 3.428571 16.114286l179.2 43.771429c5.714286 1.371429 11.314286-2.971429 11.314286-8.8l0.914285-184.571429c0-7.657143-8.8-12-14.742857-7.2l-54.628571 42.742857C807.657143 94.057143 668.114286 20.571429 511.428571 20.571429 243.428571 20.571429 25.485714 235.542857 20.571429 502.628571a9.142857 9.142857 0 0 0 9.142857 9.371429h68.571428c4.914286 0 8.914286-4 9.028572-8.914286zM994.285714 512h-68.571428c-4.914286 0-9.028571 4-9.142857 8.914286a403.085714 403.085714 0 0 1-118.285715 277.028571 402.937143 402.937143 0 0 1-128.457143 86.742857c-49.828571 21.028571-102.742857 31.771429-157.257142 31.771429s-107.542857-10.628571-157.257143-31.771429a402.937143 402.937143 0 0 1-128.457143-86.742857c-11.428571-11.428571-22.057143-23.428571-31.885714-35.885714l57.028571-44.685714a9.142857 9.142857 0 0 0-3.428571-16.114286l-179.2-43.771429c-5.714286-1.371429-11.314286 2.971429-11.314286 8.8l-0.914286 184.8c0 7.657143 8.8 12 14.742857 7.2l54.628572-42.742857C216.342857 929.942857 355.885714 1003.428571 512.571429 1003.428571 780.571429 1003.428571 998.514286 788.457143 1003.428571 521.371429a9.142857 9.142857 0 0 0-9.142857-9.371429z" p-id="15232"></path></svg>