<?xml version="1.0" standalone="no"?><!DOCTYPE svg PUBLIC "-//W3C//DTD SVG 1.1//EN" "http://www.w3.org/Graphics/SVG/1.1/DTD/svg11.dtd"><svg t="1563866655067" class="icon" viewBox="0 0 1542 1024" version="1.1" xmlns="http://www.w3.org/2000/svg" p-id="6792" xmlns:xlink="http://www.w3.org/1999/xlink" width="301.171875" height="200"><defs><style type="text/css"></style></defs><path d="M7.511002 1017.740831h1513.466993V11.266504H7.511002v1006.474327z m1515.970661 3.755502v-3.755502 3.755502zM1.251834 1024V5.007335H1527.237164v1018.992665H1.251834z" fill="#353636" p-id="6793"></path><path d="M3.755501 7.511002h1519.726162v506.992665H3.755501z" fill="#E24654" p-id="6794"></path><path d="M3.755501 514.503667h1519.726162v506.992666H3.755501zM232.841076 261.633252c0-80.117359 47.569682-148.968215 115.168704-181.515893-13.770171-2.503667-27.540342-5.007335-41.310513-5.007335-102.650367 0-186.523227 83.872861-186.523228 186.523228s83.872861 185.271394 185.271394 185.271393c13.770171 0 28.792176-1.251834 41.310513-5.007334-66.347188-31.295844-113.91687-100.146699-113.91687-180.264059zM434.386308 111.413203l11.266504 32.547677h35.051344l-28.792176 21.281174 11.266504 32.547677-28.792176-20.02934-27.540342 20.02934 10.01467-32.547677-27.540343-21.281174h35.051345zM538.288509 187.775061l11.266503 33.799511h35.051345l-28.792176 20.02934 11.266504 33.799511-28.792176-21.281174-28.792176 21.281174 11.266503-33.799511-28.792176-20.02934h35.051345z" fill="#FFFFFF" p-id="6795"></path><path d="M329.232274 187.775061l11.266504 33.799511H375.550122l-28.792176 20.02934 11.266504 33.799511-28.792176-21.281174-27.540342 21.281174 11.266503-33.799511-28.792176-20.02934h35.051345zM498.229829 311.706601l11.266504 32.547678h35.051344l-28.792176 21.281173 11.266504 32.547678-28.792176-20.02934-27.540342 20.02934 10.014669-32.547678-27.540342-21.281173H488.215159zM370.542787 311.706601l10.01467 32.547678h35.051345L388.06846 365.535452l10.01467 32.547678-27.540343-20.02934-28.792176 20.02934 11.266504-32.547678-28.792176-21.281173h35.051345z" fill="#FFFFFF" p-id="6796"></path></svg>